# xmcd CD database file
#
# Track frame offsets:
#	150
#	22340
#	42515
#	68950
#	85765
#	103885
#	120380
#	141445
#	160260
#	183035
#	211670
#	231335
#	259750
#	293775
#	318830
#	331375
#
# Disc length: 4744 seconds
#
# Revision: 0
# Processed by: cddbd v1.5.1PL0 Copyright (c) Steve Scherf et al.
# Submitted via: CDex 1.51
#
DISCID=e8128610
DTITLE=Fiona Apple - Live at the Warfield Theatre
DYEAR=2000
DGENRE=Jazz
TTITLE0=On The Bound
TTITLE1=To Your Love
TTITLE2=Criminal
TTITLE3=Limp
TTITLE4=Sullen Girl
TTITLE5=Paper Bag
TTITLE6=Get Gone
TTITLE7=Love Ridden
TTITLE8=Sleep To Dream
TTITLE9=Carrion
TTITLE10=The Way Things Are
TTITLE11=I Know
TTITLE12=Mistake
TTITLE13=Fast As You Can
TTITLE14=Just One Of Those Things
TTITLE15=Kissin' My Love
EXTD=YEAR: 2000
EXTT0=
EXTT1=
EXTT2=
EXTT3=
EXTT4=
EXTT5=
EXTT6=
EXTT7=
EXTT8=
EXTT9=
EXTT10=
EXTT11=
EXTT12=
EXTT13=
EXTT14=
EXTT15=
PLAYORDER=
